<svg width="56" height="358" viewBox="0 0 56 358" fill="none" xmlns="http://www.w3.org/2000/svg">
<circle cx="28" cy="330" r="28" fill="#0F5EC2"/>
<path fill-rule="evenodd" clip-rule="evenodd" d="M25 321C25 320.448 24.5523 320 24 320C23.4477 320 23 320.448 23 321V322H22C20.3431 322 19 323.343 19 325V337C19 338.657 20.3431 340 22 340H27C27.5523 340 28 339.552 28 339C28 338.448 27.5523 338 27 338H22C21.4477 338 21 337.552 21 337V329H35V329.75C35 330.302 35.4477 330.75 36 330.75C36.5523 330.75 37 330.302 37 329.75V325C37 323.343 35.6569 322 34 322H33V321C33 320.448 32.5523 320 32 320C31.4477 320 31 320.448 31 321V322H25V321ZM22 324H23V325C23 325.552 23.4477 326 24 326C24.5523 326 25 325.552 25 325V324H31V325C31 325.552 31.4477 326 32 326C32.5523 326 33 325.552 33 325V324H34C34.5523 324 35 324.448 35 325V327H21V325C21 324.448 21.4477 324 22 324Z" fill="white"/>
<path d="M37.7071 334.707C38.0976 334.317 38.0976 333.683 37.7071 333.293C37.3166 332.902 36.6834 332.902 36.2929 333.293L32 337.586L30.7071 336.293C30.3166 335.902 29.6834 335.902 29.2929 336.293C28.9024 336.683 28.9024 337.317 29.2929 337.707L31.2929 339.707C31.6834 340.098 32.3166 340.098 32.7071 339.707L37.7071 334.707Z" fill="white"/>
</svg>
