<svg width="56" height="714" viewBox="0 0 56 714" fill="none" xmlns="http://www.w3.org/2000/svg">
<circle cx="28" cy="686" r="28" fill="#0F5EC2"/>
<path fill-rule="evenodd" clip-rule="evenodd" d="M18 680C18 677.791 19.7909 676 22 676H30C32.2091 676 34 677.791 34 680V688C34 690.209 32.2091 692 30 692H22C19.7909 692 18 690.209 18 688V680ZM22 678C20.8954 678 20 678.895 20 680V688C20 689.105 20.8954 690 22 690H30C31.1046 690 32 689.105 32 688V680C32 678.895 31.1046 678 30 678H22ZM29.7071 681.293C30.0976 681.683 30.0976 682.317 29.7071 682.707L25.2071 687.207C24.8166 687.598 24.1834 687.598 23.7929 687.207L22.2929 685.707C21.9024 685.317 21.9024 684.683 22.2929 684.293C22.6834 683.902 23.3166 683.902 23.7071 684.293L24.5 685.086L28.2929 681.293C28.6834 680.902 29.3166 680.902 29.7071 681.293ZM38 681C38 680.448 37.5523 680 37 680C36.4477 680 36 680.448 36 681V692C36 693.105 35.1046 694 34 694H23C22.4477 694 22 694.448 22 695C22 695.552 22.4477 696 23 696H34C36.2091 696 38 694.209 38 692V681Z" fill="white"/>
</svg>
