<svg width="704" height="896" viewBox="0 0 704 896" fill="none" xmlns="http://www.w3.org/2000/svg">
<g clip-path="url(#clip0_2310_26448)">
<g opacity="0.5" filter="url(#filter0_d_2310_26448)">
<path d="M352 896C546.404 896 704 738.404 704 544C704 349.596 546.404 192 352 192C157.596 192 0 349.596 0 544C0 738.404 157.596 896 352 896Z" fill="white"/>
<path d="M352 896C546.404 896 704 738.404 704 544C704 349.596 546.404 192 352 192C157.596 192 0 349.596 0 544C0 738.404 157.596 896 352 896Z" fill="#0F5EC2" fill-opacity="0.05"/>
<path d="M352 895C350.019 895 348.042 894.984 346.069 894.951L346.053 895.951C344.734 895.929 343.416 895.9 342.101 895.863L342.129 894.864C338.181 894.755 334.249 894.581 330.334 894.342L330.274 895.34C328.955 895.26 327.639 895.173 326.325 895.078L326.397 894.081C322.461 893.797 318.542 893.448 314.643 893.036L314.538 894.03C313.224 893.891 311.911 893.745 310.601 893.591L310.718 892.598C306.799 892.139 302.9 891.615 299.022 891.028L298.872 892.017C297.566 891.819 296.262 891.614 294.961 891.402L295.122 890.415C291.225 889.78 287.35 889.081 283.497 888.319L283.303 889.3C282.011 889.044 280.722 888.782 279.435 888.512L279.64 887.533C275.774 886.723 271.931 885.849 268.113 884.913L267.875 885.884C266.599 885.571 265.325 885.251 264.054 884.924L264.303 883.956C260.477 882.972 256.676 881.925 252.901 880.816L252.619 881.775C251.357 881.405 250.099 881.027 248.843 880.643L249.135 879.687C245.36 878.531 241.611 877.314 237.891 876.035L237.566 876.981C236.322 876.553 235.08 876.119 233.842 875.678L234.178 874.736C230.46 873.412 226.772 872.026 223.113 870.581L222.746 871.511C221.522 871.028 220.3 870.537 219.083 870.04L219.461 869.115C215.808 867.624 212.187 866.074 208.597 864.465L208.188 865.378C206.987 864.839 205.788 864.294 204.594 863.742L205.013 862.835C201.433 861.181 197.886 859.47 194.372 857.701L193.923 858.594C192.746 858.002 191.573 857.403 190.404 856.798L190.864 855.91C187.363 854.097 183.897 852.228 180.466 850.302L179.976 851.174C178.828 850.53 177.683 849.879 176.542 849.222L177.041 848.355C173.626 846.388 170.247 844.364 166.906 842.287L166.378 843.136C165.259 842.44 164.144 841.738 163.034 841.03L163.572 840.187C160.249 838.069 156.964 835.896 153.719 833.67L153.153 834.495C152.067 833.75 150.985 832.999 149.907 832.242L150.482 831.424C147.258 829.159 144.073 826.841 140.93 824.472L140.328 825.271C139.276 824.478 138.229 823.679 137.186 822.875L137.797 822.083C134.678 819.677 131.6 817.219 128.565 814.711L127.928 815.482C126.913 814.643 125.902 813.799 124.897 812.949L125.542 812.185C122.534 809.642 119.568 807.049 116.648 804.408L115.977 805.15C115 804.266 114.029 803.378 113.062 802.484L113.741 801.75C110.849 799.075 108.002 796.352 105.202 793.583L104.499 794.294C103.563 793.368 102.632 792.437 101.706 791.501L102.417 790.798C99.6475 787.998 96.9249 785.151 94.2504 782.259L93.5162 782.938C92.6223 781.971 91.7337 781 90.8505 780.023L91.5921 779.352C88.9509 776.432 86.3581 773.466 83.815 770.458L83.0513 771.103C82.2012 770.098 81.3567 769.087 80.5177 768.072L81.2886 767.435C78.7809 764.4 76.3233 761.322 73.9169 758.203L73.1252 758.814C72.3208 757.771 71.5221 756.724 70.7292 755.672L71.5278 755.07C69.1586 751.927 66.8411 748.742 64.5764 745.518L63.7581 746.093C63.0012 745.015 62.2501 743.933 61.505 742.847L62.3297 742.281C60.1039 739.036 57.9312 735.751 55.8129 732.428L54.9696 732.966C54.2618 731.856 53.56 730.741 52.8643 729.622L53.7135 729.094C51.6357 725.753 49.6124 722.374 47.645 718.959L46.7785 719.458C46.1213 718.317 45.4703 717.172 44.8256 716.024L45.6976 715.534C43.7722 712.103 41.9027 708.637 40.0904 705.136L39.2023 705.596C38.5972 704.427 37.9985 703.254 37.4062 702.078L38.2993 701.628C36.5304 698.114 34.8187 694.567 33.1655 690.987L32.2576 691.406C31.706 690.212 31.1608 689.013 30.6222 687.812L31.5348 687.403C29.9261 683.813 28.3759 680.192 26.8855 676.54L25.9596 676.917C25.4627 675.7 24.9724 674.479 24.4887 673.254L25.4188 672.887C23.9738 669.228 22.5885 665.54 21.2641 661.822L20.3221 662.158C19.881 660.92 19.4466 659.678 19.019 658.434L19.9647 658.109C18.6865 654.389 17.469 650.64 16.3135 646.865L15.3573 647.158C14.9729 645.902 14.5954 644.643 14.2247 643.381L15.1842 643.099C14.0753 639.324 13.0283 635.523 12.0441 631.697L11.0756 631.946C10.7487 630.675 10.4288 629.401 10.1158 628.125L11.087 627.887C10.1507 624.069 9.27688 620.226 8.46667 616.36L7.48793 616.565C7.21825 615.278 6.9556 613.989 6.70002 612.697L7.68101 612.503C6.91885 608.651 6.21973 604.775 5.58478 600.878L4.59779 601.039C4.38575 599.738 4.18085 598.434 3.98313 597.128L4.97186 596.978C4.38475 593.1 3.86109 589.201 3.40199 585.282L2.40878 585.399C2.25531 584.089 2.10903 582.777 1.96998 581.462L2.96443 581.357C2.55193 577.458 2.20327 573.54 1.91951 569.603L0.922099 569.675C0.827361 568.361 0.739837 567.045 0.659568 565.727L1.65772 565.666C1.41936 561.751 1.24515 557.82 1.13613 553.872L0.136513 553.899C0.10019 552.584 0.0710838 551.267 0.0492323 549.948L1.0491 549.931C1.01641 547.958 1 545.981 1 544C1 542.019 1.01641 540.042 1.04909 538.069L0.0492285 538.053C0.0710792 536.734 0.100185 535.416 0.136507 534.101L1.13613 534.129C1.24514 530.181 1.41935 526.249 1.65771 522.334L0.659556 522.274C0.739825 520.955 0.827348 519.639 0.922086 518.325L1.9195 518.397C2.20325 514.461 2.55191 510.542 2.96441 506.643L1.96996 506.538C2.109 505.224 2.25528 503.911 2.40875 502.601L3.40196 502.718C3.86107 498.799 4.38472 494.9 4.97183 491.022L3.9831 490.872C4.18082 489.566 4.38572 488.262 4.59776 486.961L5.58474 487.122C6.21969 483.225 6.91881 479.35 7.68097 475.497L6.69999 475.303C6.95557 474.011 7.21821 472.722 7.48789 471.435L8.46663 471.64C9.27684 467.774 10.1507 463.931 11.087 460.113L10.1157 459.875C10.4287 458.599 10.7487 457.325 11.0756 456.054L12.044 456.303C13.0282 452.477 14.0753 448.676 15.1841 444.901L14.2247 444.619C14.5953 443.357 14.9729 442.099 15.3573 440.843L16.3135 441.135C17.469 437.36 18.6864 433.611 19.9647 429.891L19.0189 429.566C19.4465 428.322 19.8809 427.08 20.3221 425.842L21.2641 426.178C22.5885 422.46 23.9738 418.772 25.4187 415.113L24.4887 414.746C24.9723 413.522 25.4626 412.3 25.9596 411.083L26.8854 411.461C28.3759 407.808 29.926 404.187 31.5347 400.597L30.6222 400.188C31.1608 398.987 31.7059 397.788 32.2576 396.594L33.1655 397.013C34.8186 393.433 36.5303 389.886 38.2993 386.372L37.4061 385.922C37.9984 384.746 38.5972 383.573 39.2023 382.404L40.0904 382.864C41.9026 379.363 43.7721 375.897 45.6976 372.466L44.8255 371.976C45.4703 370.828 46.1213 369.683 46.7785 368.542L47.645 369.041C49.6124 365.626 51.6356 362.247 53.7135 358.906L52.8643 358.378C53.56 357.259 54.2618 356.144 54.9696 355.034L55.8128 355.572C57.9311 352.249 60.1038 348.964 62.3296 345.719L61.505 345.153C62.2501 344.067 63.0011 342.985 63.758 341.907L64.5763 342.482C66.841 339.258 69.1586 336.073 71.5278 332.93L70.7292 332.328C71.5221 331.276 72.3208 330.229 73.1251 329.186L73.9169 329.797C76.3232 326.678 78.7809 323.6 81.2886 320.565L80.5177 319.928C81.3567 318.913 82.2012 317.902 83.0513 316.897L83.815 317.542C86.3581 314.534 88.9509 311.568 91.5922 308.648L90.8505 307.977C91.7337 307 92.6223 306.029 93.5162 305.062L94.2504 305.741C96.9249 302.849 99.6475 300.002 102.417 297.202L101.706 296.499C102.632 295.563 103.563 294.632 104.499 293.706L105.202 294.417C108.002 291.648 110.849 288.925 113.741 286.25L113.062 285.516C114.029 284.622 115 283.734 115.977 282.85L116.648 283.592C119.568 280.951 122.534 278.358 125.542 275.815L124.897 275.051C125.902 274.201 126.913 273.357 127.928 272.518L128.565 273.289C131.6 270.781 134.678 268.323 137.797 265.917L137.186 265.125C138.229 264.321 139.276 263.522 140.328 262.729L140.93 263.528C144.073 261.159 147.258 258.841 150.482 256.576L149.907 255.758C150.985 255.001 152.067 254.25 153.153 253.505L153.719 254.33C156.964 252.104 160.249 249.931 163.572 247.813L163.034 246.97C164.144 246.262 165.259 245.56 166.378 244.864L166.906 245.714C170.247 243.636 173.626 241.612 177.041 239.645L176.542 238.779C177.683 238.121 178.828 237.47 179.976 236.826L180.466 237.698C183.897 235.772 187.363 233.903 190.864 232.09L190.404 231.202C191.573 230.597 192.746 229.998 193.922 229.406L194.372 230.299C197.886 228.53 201.433 226.819 205.013 225.166L204.594 224.258C205.788 223.706 206.987 223.161 208.188 222.622L208.597 223.535C212.187 221.926 215.808 220.376 219.46 218.885L219.083 217.96C220.3 217.463 221.521 216.972 222.746 216.489L223.113 217.419C226.772 215.974 230.46 214.589 234.178 213.264L233.842 212.322C235.08 211.881 236.322 211.447 237.566 211.019L237.891 211.965C241.611 210.686 245.36 209.469 249.135 208.314L248.842 207.357C250.098 206.973 251.357 206.595 252.619 206.225L252.901 207.184C256.676 206.075 260.477 205.028 264.303 204.044L264.054 203.076C265.325 202.749 266.599 202.429 267.875 202.116L268.113 203.087C271.931 202.151 275.774 201.277 279.64 200.467L279.435 199.488C280.722 199.218 282.011 198.956 283.303 198.7L283.497 199.681C287.349 198.919 291.225 198.22 295.122 197.585L294.961 196.598C296.262 196.386 297.566 196.181 298.872 195.983L299.022 196.972C302.9 196.385 306.799 195.861 310.718 195.402L310.601 194.409C311.911 194.255 313.223 194.109 314.538 193.97L314.643 194.964C318.542 194.552 322.46 194.203 326.397 193.92L326.325 192.922C327.639 192.827 328.955 192.74 330.273 192.66L330.334 193.658C334.249 193.419 338.18 193.245 342.128 193.136L342.101 192.137C343.416 192.1 344.733 192.071 346.052 192.049L346.069 193.049C348.042 193.016 350.019 193 352 193C353.981 193 355.958 193.016 357.931 193.049L357.947 192.049C359.266 192.071 360.584 192.1 361.899 192.137L361.871 193.136C365.819 193.245 369.751 193.419 373.666 193.658L373.726 192.66C375.045 192.74 376.361 192.827 377.675 192.922L377.603 193.919C381.539 194.203 385.458 194.552 389.357 194.964L389.462 193.97C390.776 194.109 392.089 194.255 393.399 194.409L393.282 195.402C397.201 195.861 401.1 196.385 404.978 196.972L405.128 195.983C406.434 196.181 407.738 196.386 409.039 196.598L408.878 197.585C412.775 198.22 416.65 198.919 420.503 199.681L420.697 198.7C421.989 198.956 423.278 199.218 424.565 199.488L424.36 200.467C428.226 201.277 432.069 202.151 435.887 203.087L436.125 202.116C437.401 202.429 438.675 202.749 439.946 203.076L439.697 204.044C443.523 205.028 447.324 206.075 451.099 207.184L451.381 206.225C452.642 206.595 453.901 206.973 455.157 207.357L454.865 208.313C458.64 209.469 462.389 210.686 466.109 211.965L466.434 211.019C467.678 211.447 468.92 211.881 470.158 212.322L469.822 213.264C473.54 214.588 477.228 215.974 480.887 217.419L481.254 216.489C482.478 216.972 483.7 217.463 484.917 217.96L484.539 218.885C488.192 220.376 491.813 221.926 495.403 223.535L495.812 222.622C497.013 223.161 498.212 223.706 499.406 224.258L498.987 225.165C502.567 226.819 506.114 228.53 509.628 230.299L510.078 229.406C511.254 229.998 512.427 230.597 513.596 231.202L513.136 232.09C516.637 233.903 520.103 235.772 523.534 237.698L524.024 236.826C525.172 237.47 526.317 238.121 527.458 238.778L526.959 239.645C530.374 241.612 533.753 243.636 537.094 245.713L537.622 244.864C538.741 245.56 539.856 246.262 540.966 246.97L540.428 247.813C543.751 249.931 547.036 252.104 550.281 254.33L550.847 253.505C551.933 254.25 553.015 255.001 554.093 255.758L553.518 256.576C556.742 258.841 559.927 261.159 563.07 263.528L563.672 262.729C564.724 263.522 565.771 264.321 566.814 265.125L566.203 265.917C569.322 268.323 572.4 270.781 575.435 273.289L576.072 272.518C577.087 273.357 578.098 274.201 579.103 275.051L578.458 275.815C581.466 278.358 584.432 280.951 587.352 283.592L588.023 282.85C589 283.734 589.971 284.622 590.938 285.516L590.259 286.25C593.151 288.925 595.998 291.648 598.798 294.417L599.501 293.706C600.437 294.632 601.368 295.563 602.294 296.499L601.583 297.202C604.352 300.002 607.075 302.849 609.75 305.741L610.484 305.062C611.378 306.029 612.266 307 613.15 307.977L612.408 308.648C615.049 311.568 617.642 314.534 620.185 317.542L620.949 316.897C621.799 317.902 622.643 318.913 623.482 319.928L622.711 320.565C625.219 323.6 627.677 326.678 630.083 329.797L630.875 329.186C631.679 330.229 632.478 331.276 633.271 332.328L632.472 332.93C634.841 336.073 637.159 339.258 639.424 342.482L640.242 341.907C640.999 342.985 641.75 344.067 642.495 345.153L641.67 345.719C643.896 348.964 646.069 352.249 648.187 355.572L649.03 355.034C649.738 356.144 650.44 357.259 651.136 358.378L650.286 358.906C652.364 362.247 654.388 365.626 656.355 369.041L657.221 368.542C657.879 369.683 658.53 370.827 659.174 371.976L658.302 372.466C660.228 375.897 662.097 379.363 663.91 382.864L664.798 382.404C665.403 383.573 666.002 384.746 666.594 385.922L665.701 386.372C667.47 389.886 669.181 393.433 670.834 397.013L671.742 396.594C672.294 397.788 672.839 398.987 673.378 400.188L672.465 400.597C674.074 404.187 675.624 407.808 677.115 411.46L678.04 411.083C678.537 412.3 679.028 413.521 679.511 414.746L678.581 415.113C680.026 418.772 681.411 422.46 682.736 426.178L683.678 425.842C684.119 427.08 684.553 428.322 684.981 429.566L684.035 429.891C685.314 433.611 686.531 437.36 687.686 441.135L688.643 440.842C689.027 442.098 689.405 443.357 689.775 444.619L688.816 444.901C689.925 448.676 690.972 452.477 691.956 456.303L692.924 456.054C693.251 457.325 693.571 458.599 693.884 459.875L692.913 460.113C693.849 463.931 694.723 467.774 695.533 471.64L696.512 471.435C696.782 472.721 697.044 474.011 697.3 475.303L696.319 475.497C697.081 479.349 697.78 483.225 698.415 487.122L699.402 486.961C699.614 488.262 699.819 489.566 700.017 490.872L699.028 491.022C699.615 494.9 700.139 498.799 700.598 502.718L701.591 502.601C701.745 503.911 701.891 505.223 702.03 506.538L701.036 506.643C701.448 510.542 701.797 514.46 702.081 518.397L703.078 518.325C703.173 519.639 703.26 520.955 703.34 522.273L702.342 522.334C702.581 526.249 702.755 530.18 702.864 534.128L703.863 534.101C703.9 535.416 703.929 536.733 703.951 538.052L702.951 538.069C702.984 540.042 703 542.019 703 544C703 545.981 702.984 547.958 702.951 549.931L703.951 549.947C703.929 551.266 703.9 552.584 703.863 553.899L702.864 553.871C702.755 557.819 702.581 561.751 702.342 565.666L703.34 565.726C703.26 567.045 703.173 568.361 703.078 569.675L702.081 569.603C701.797 573.539 701.448 577.458 701.036 581.357L702.03 581.462C701.891 582.776 701.745 584.089 701.591 585.399L700.598 585.282C700.139 589.201 699.615 593.1 699.028 596.978L700.017 597.128C699.819 598.434 699.614 599.738 699.402 601.039L698.415 600.878C697.78 604.775 697.081 608.65 696.319 612.503L697.3 612.697C697.044 613.989 696.782 615.278 696.512 616.565L695.533 616.36C694.723 620.226 693.849 624.069 692.913 627.887L693.884 628.125C693.571 629.401 693.251 630.675 692.924 631.946L691.956 631.697C690.972 635.523 689.925 639.324 688.816 643.099L689.775 643.381C689.405 644.643 689.027 645.901 688.643 647.157L687.687 646.865C686.531 650.64 685.314 654.389 684.035 658.109L684.981 658.434C684.553 659.678 684.119 660.92 683.678 662.158L682.736 661.822C681.412 665.54 680.026 669.228 678.581 672.887L679.511 673.254C679.028 674.478 678.537 675.7 678.04 676.917L677.115 676.539C675.624 680.192 674.074 683.813 672.465 687.403L673.378 687.812C672.839 689.013 672.294 690.212 671.742 691.406L670.835 690.987C669.181 694.567 667.47 698.114 665.701 701.628L666.594 702.078C666.002 703.254 665.403 704.427 664.798 705.596L663.91 705.136C662.097 708.637 660.228 712.103 658.302 715.534L659.174 716.024C658.53 717.172 657.879 718.317 657.222 719.458L656.355 718.959C654.388 722.374 652.364 725.753 650.287 729.094L651.136 729.622C650.44 730.741 649.738 731.856 649.03 732.966L648.187 732.428C646.069 735.751 643.896 739.036 641.67 742.281L642.495 742.847C641.75 743.933 640.999 745.015 640.242 746.093L639.424 745.518C637.159 748.742 634.841 751.927 632.472 755.07L633.271 755.672C632.478 756.724 631.679 757.771 630.875 758.814L630.083 758.203C627.677 761.322 625.219 764.4 622.711 767.435L623.482 768.072C622.643 769.087 621.799 770.098 620.949 771.103L620.185 770.458C617.642 773.466 615.049 776.432 612.408 779.352L613.15 780.023C612.266 781 611.378 781.971 610.484 782.938L609.75 782.259C607.075 785.151 604.352 787.998 601.583 790.798L602.294 791.501C601.368 792.437 600.437 793.368 599.501 794.294L598.798 793.583C595.998 796.352 593.151 799.075 590.259 801.75L590.938 802.484C589.971 803.378 589 804.266 588.023 805.15L587.352 804.408C584.432 807.049 581.466 809.642 578.458 812.185L579.103 812.949C578.098 813.799 577.087 814.643 576.072 815.482L575.435 814.711C572.4 817.219 569.322 819.677 566.203 822.083L566.814 822.875C565.771 823.679 564.724 824.478 563.672 825.271L563.07 824.472C559.927 826.841 556.742 829.159 553.518 831.424L554.093 832.242C553.016 832.999 551.933 833.75 550.847 834.495L550.281 833.67C547.036 835.896 543.751 838.069 540.428 840.187L540.966 841.03C539.856 841.738 538.741 842.44 537.622 843.136L537.094 842.286C533.753 844.364 530.374 846.388 526.959 848.355L527.458 849.221C526.317 849.879 525.172 850.53 524.024 851.174L523.534 850.302C520.103 852.228 516.637 854.097 513.136 855.91L513.596 856.798C512.427 857.403 511.254 858.002 510.078 858.594L509.628 857.701C506.114 859.47 502.567 861.181 498.987 862.834L499.406 863.742C498.212 864.294 497.013 864.839 495.812 865.378L495.403 864.465C491.813 866.074 488.192 867.624 484.54 869.115L484.917 870.04C483.7 870.537 482.479 871.028 481.254 871.511L480.887 870.581C477.228 872.026 473.54 873.411 469.822 874.736L470.158 875.678C468.92 876.119 467.678 876.553 466.434 876.981L466.109 876.035C462.389 877.314 458.64 878.531 454.865 879.686L455.158 880.643C453.902 881.027 452.643 881.405 451.381 881.775L451.099 880.816C447.324 881.925 443.523 882.972 439.697 883.956L439.946 884.924C438.675 885.251 437.401 885.571 436.125 885.884L435.887 884.913C432.069 885.849 428.226 886.723 424.36 887.533L424.565 888.512C423.279 888.782 421.989 889.044 420.697 889.3L420.503 888.319C416.651 889.081 412.775 889.78 408.878 890.415L409.039 891.402C407.738 891.614 406.434 891.819 405.128 892.017L404.978 891.028C401.1 891.615 397.201 892.139 393.282 892.598L393.399 893.591C392.089 893.745 390.777 893.891 389.462 894.03L389.357 893.036C385.458 893.448 381.54 893.797 377.603 894.081L377.675 895.078C376.361 895.173 375.045 895.26 373.727 895.34L373.666 894.342C369.751 894.581 365.82 894.755 361.872 894.864L361.899 895.863C360.584 895.9 359.267 895.929 357.948 895.951L357.931 894.951C355.958 894.984 353.981 895 352 895Z" stroke="#0F5EC2" stroke-width="2" stroke-dasharray="12 4"/>
</g>
<g opacity="0.75" filter="url(#filter1_d_2310_26448)">
<path d="M352 832C511.058 832 640 703.058 640 544C640 384.942 511.058 256 352 256C192.942 256 64 384.942 64 544C64 703.058 192.942 832 352 832Z" fill="white"/>
<path d="M352 832C511.058 832 640 703.058 640 544C640 384.942 511.058 256 352 256C192.942 256 64 384.942 64 544C64 703.058 192.942 832 352 832Z" fill="#2F8AE1" fill-opacity="0.15"/>
<path d="M352 831C349.975 831 347.956 830.979 345.941 830.937L345.921 831.937C344.573 831.909 343.228 831.872 341.885 831.826L341.919 830.826C337.878 830.687 333.857 830.464 329.86 830.159L329.784 831.156C328.442 831.053 327.102 830.942 325.764 830.821L325.854 829.825C321.828 829.462 317.826 829.015 313.849 828.487L313.718 829.478C312.384 829.301 311.053 829.115 309.726 828.919L309.871 827.93C305.873 827.342 301.902 826.671 297.959 825.92L297.771 826.902C296.451 826.651 295.133 826.39 293.819 826.12L294.02 825.141C290.063 824.329 286.135 823.436 282.239 822.463L281.997 823.433C280.689 823.107 279.385 822.771 278.085 822.427L278.341 821.46C274.441 820.427 270.573 819.315 266.74 818.124L266.443 819.079C265.154 818.678 263.869 818.269 262.587 817.851L262.898 816.9C259.063 815.649 255.264 814.319 251.503 812.913L251.152 813.85C249.889 813.377 248.63 812.896 247.375 812.407L247.738 811.475C243.982 810.01 240.263 808.467 236.586 806.85L236.183 807.765C234.949 807.223 233.72 806.672 232.496 806.113L232.911 805.203C229.244 803.529 225.618 801.779 222.036 799.956L221.582 800.848C220.382 800.237 219.186 799.618 217.996 798.991L218.462 798.106C214.895 796.228 211.373 794.277 207.898 792.255L207.395 793.12C206.231 792.443 205.073 791.758 203.919 791.065L204.434 790.208C200.98 788.133 197.572 785.987 194.214 783.773L193.664 784.608C192.54 783.867 191.421 783.118 190.309 782.362L190.871 781.534C187.539 779.27 184.257 776.937 181.027 774.538L180.431 775.341C179.35 774.537 178.274 773.727 177.205 772.909L177.812 772.114C174.613 769.668 171.467 767.156 168.376 764.58L167.736 765.348C166.701 764.485 165.672 763.616 164.65 762.74L165.301 761.98C162.244 759.36 159.243 756.676 156.299 753.931L155.617 754.662C154.632 753.743 153.654 752.818 152.682 751.886L153.374 751.164C150.469 748.378 147.622 745.531 144.836 742.626L144.114 743.318C143.182 742.346 142.256 741.367 141.338 740.383L142.069 739.701C139.324 736.757 136.64 733.756 134.02 730.699L133.26 731.35C132.384 730.328 131.515 729.299 130.652 728.264L131.42 727.624C128.844 724.533 126.332 721.387 123.886 718.188L123.091 718.795C122.273 717.726 121.463 716.65 120.659 715.569L121.462 714.973C119.063 711.743 116.73 708.461 114.465 705.129L113.638 705.691C112.882 704.579 112.133 703.46 111.392 702.336L112.227 701.786C110.013 698.428 107.867 695.02 105.792 691.566L104.935 692.081C104.242 690.927 103.557 689.769 102.88 688.605L103.745 688.102C101.723 684.627 99.7719 681.105 97.8938 677.538L97.009 678.004C96.382 676.814 95.7631 675.618 95.1524 674.418L96.0437 673.964C94.221 670.382 92.4714 666.756 90.7967 663.089L89.8871 663.504C89.3279 662.28 88.777 661.051 88.2345 659.817L89.15 659.414C87.5327 655.737 85.9904 652.018 84.525 648.262L83.5933 648.625C83.1038 647.37 82.6228 646.111 82.1505 644.848L83.0872 644.497C81.6808 640.736 80.3511 636.937 79.1 633.103L78.1493 633.413C77.7312 632.131 77.3218 630.846 76.9212 629.557L77.8762 629.26C76.6853 625.427 75.5726 621.559 74.5399 617.659L73.5733 617.915C73.229 616.615 72.8935 615.311 72.567 614.003L73.5372 613.761C72.5643 609.865 71.6711 605.938 70.8592 601.98L69.8796 602.181C69.61 600.867 69.3494 599.549 69.0977 598.229L70.0801 598.042C69.3288 594.099 68.6582 590.127 68.0701 586.129L67.0807 586.274C66.8854 584.947 66.6992 583.616 66.5221 582.283L67.5134 582.151C66.9852 578.175 66.5385 574.172 66.1749 570.146L65.179 570.236C65.0582 568.899 64.9466 567.559 64.8441 566.216L65.8412 566.14C65.5363 562.143 65.3132 558.123 65.1737 554.081L64.1743 554.116C64.128 552.773 64.0908 551.427 64.0629 550.08L65.0627 550.059C65.021 548.044 65 546.025 65 544C65 541.975 65.021 539.956 65.0627 537.941L64.0629 537.921C64.0908 536.573 64.128 535.228 64.1743 533.885L65.1737 533.919C65.3132 529.878 65.5363 525.857 65.8412 521.86L64.8441 521.784C64.9465 520.442 65.0582 519.102 65.1789 517.764L66.1749 517.854C66.5385 513.828 66.9852 509.826 67.5133 505.849L66.5221 505.718C66.6992 504.384 66.8854 503.053 67.0807 501.726L68.07 501.871C68.6582 497.873 69.3288 493.902 70.08 489.959L69.0977 489.771C69.3493 488.451 69.61 487.133 69.8796 485.819L70.8592 486.02C71.671 482.063 72.5643 478.135 73.5372 474.239L72.567 473.997C72.8935 472.689 73.2289 471.385 73.5732 470.085L74.5399 470.341C75.5726 466.441 76.6853 462.573 77.8762 458.74L76.9212 458.443C77.3218 457.154 77.7312 455.869 78.1493 454.587L79.1 454.898C80.3511 451.063 81.6808 447.264 83.0871 443.503L82.1505 443.152C82.6228 441.889 83.1038 440.63 83.5933 439.375L84.5249 439.738C85.9904 435.982 87.5327 432.263 89.1499 428.586L88.2345 428.183C88.777 426.949 89.3279 425.72 89.8871 424.496L90.7967 424.911C92.4714 421.244 94.221 417.618 96.0437 414.036L95.1524 413.582C95.7631 412.382 96.382 411.186 97.009 409.996L97.8938 410.462C99.7719 406.895 101.723 403.373 103.745 399.898L102.88 399.395C103.557 398.231 104.242 397.073 104.935 395.919L105.792 396.434C107.867 392.98 110.013 389.572 112.227 386.214L111.392 385.664C112.133 384.54 112.882 383.421 113.638 382.309L114.466 382.871C116.73 379.539 119.063 376.257 121.462 373.027L120.659 372.431C121.463 371.35 122.273 370.274 123.091 369.205L123.886 369.812C126.332 366.613 128.844 363.467 131.42 360.376L130.652 359.736C131.515 358.701 132.384 357.672 133.261 356.65L134.02 357.301C136.64 354.244 139.324 351.243 142.069 348.299L141.338 347.617C142.257 346.632 143.182 345.654 144.114 344.682L144.836 345.374C147.622 342.469 150.469 339.622 153.374 336.836L152.682 336.114C153.654 335.182 154.632 334.256 155.617 333.338L156.299 334.069C159.243 331.324 162.244 328.64 165.301 326.02L164.65 325.26C165.672 324.384 166.701 323.515 167.736 322.652L168.376 323.42C171.467 320.844 174.613 318.332 177.812 315.886L177.205 315.091C178.274 314.273 179.35 313.463 180.431 312.659L181.028 313.462C184.257 311.063 187.539 308.73 190.871 306.465L190.309 305.638C191.421 304.882 192.54 304.133 193.664 303.392L194.214 304.227C197.572 302.013 200.98 299.867 204.434 297.792L203.919 296.935C205.073 296.242 206.231 295.557 207.395 294.88L207.898 295.745C211.373 293.723 214.895 291.772 218.462 289.894L217.996 289.009C219.186 288.382 220.382 287.763 221.582 287.152L222.036 288.044C225.618 286.221 229.244 284.471 232.911 282.797L232.496 281.887C233.72 281.328 234.949 280.777 236.183 280.235L236.586 281.15C240.263 279.533 243.982 277.99 247.738 276.525L247.375 275.593C248.63 275.104 249.889 274.623 251.152 274.15L251.503 275.087C255.264 273.681 259.063 272.351 262.897 271.1L262.587 270.149C263.869 269.731 265.154 269.322 266.443 268.921L266.74 269.876C270.573 268.685 274.441 267.573 278.341 266.54L278.085 265.573C279.385 265.229 280.689 264.894 281.997 264.567L282.239 265.537C286.135 264.564 290.062 263.671 294.02 262.859L293.819 261.88C295.133 261.61 296.451 261.349 297.771 261.098L297.958 262.08C301.901 261.329 305.873 260.658 309.871 260.07L309.726 259.081C311.053 258.885 312.384 258.699 313.717 258.522L313.849 259.513C317.825 258.985 321.828 258.538 325.854 258.175L325.764 257.179C327.101 257.058 328.441 256.947 329.784 256.844L329.86 257.841C333.857 257.536 337.877 257.313 341.919 257.174L341.884 256.174C343.227 256.128 344.573 256.091 345.92 256.063L345.941 257.063C347.956 257.021 349.975 257 352 257C354.025 257 356.044 257.021 358.059 257.063L358.079 256.063C359.427 256.091 360.772 256.128 362.115 256.174L362.081 257.174C366.122 257.313 370.143 257.536 374.14 257.841L374.216 256.844C375.558 256.947 376.898 257.058 378.236 257.179L378.146 258.175C382.172 258.538 386.174 258.985 390.151 259.513L390.282 258.522C391.616 258.699 392.947 258.885 394.274 259.081L394.129 260.07C398.127 260.658 402.098 261.329 406.041 262.08L406.229 261.098C407.549 261.349 408.867 261.61 410.181 261.88L409.98 262.859C413.937 263.671 417.865 264.564 421.761 265.537L422.003 264.567C423.311 264.893 424.615 265.229 425.915 265.573L425.659 266.54C429.559 267.573 433.427 268.685 437.26 269.876L437.556 268.921C438.846 269.322 440.131 269.731 441.413 270.149L441.102 271.1C444.937 272.351 448.736 273.681 452.497 275.087L452.848 274.15C454.111 274.623 455.37 275.104 456.625 275.593L456.262 276.525C460.018 277.99 463.737 279.533 467.414 281.15L467.817 280.235C469.051 280.777 470.28 281.328 471.504 281.887L471.089 282.797C474.756 284.471 478.382 286.221 481.964 288.044L482.418 287.152C483.618 287.763 484.814 288.382 486.004 289.009L485.538 289.894C489.105 291.772 492.627 293.723 496.102 295.745L496.605 294.88C497.769 295.557 498.927 296.242 500.081 296.935L499.566 297.792C503.02 299.867 506.428 302.013 509.786 304.227L510.336 303.392C511.46 304.133 512.579 304.882 513.691 305.638L513.129 306.466C516.461 308.73 519.743 311.063 522.973 313.462L523.569 312.659C524.65 313.463 525.726 314.273 526.795 315.091L526.188 315.886C529.387 318.332 532.533 320.844 535.624 323.42L536.264 322.652C537.299 323.515 538.328 324.384 539.35 325.261L538.699 326.02C541.756 328.64 544.757 331.324 547.701 334.069L548.383 333.338C549.368 334.257 550.346 335.182 551.318 336.114L550.626 336.836C553.531 339.622 556.378 342.469 559.164 345.374L559.886 344.682C560.818 345.654 561.744 346.632 562.662 347.617L561.931 348.299C564.676 351.243 567.36 354.244 569.98 357.301L570.74 356.65C571.616 357.672 572.485 358.701 573.348 359.736L572.58 360.376C575.156 363.467 577.668 366.613 580.114 369.812L580.909 369.205C581.727 370.274 582.537 371.35 583.341 372.431L582.538 373.028C584.937 376.257 587.27 379.539 589.534 382.871L590.362 382.309C591.118 383.421 591.867 384.54 592.608 385.664L591.773 386.214C593.987 389.572 596.133 392.98 598.208 396.434L599.065 395.919C599.758 397.073 600.443 398.231 601.12 399.395L600.255 399.898C602.277 403.373 604.228 406.895 606.106 410.462L606.991 409.996C607.618 411.186 608.237 412.382 608.848 413.582L607.956 414.036C609.779 417.618 611.529 421.244 613.203 424.911L614.113 424.496C614.672 425.72 615.223 426.949 615.765 428.183L614.85 428.586C616.467 432.263 618.01 435.982 619.475 439.738L620.407 439.375C620.896 440.63 621.377 441.889 621.849 443.152L620.913 443.503C622.319 447.264 623.649 451.063 624.9 454.897L625.851 454.587C626.269 455.869 626.678 457.154 627.079 458.443L626.124 458.74C627.315 462.573 628.427 466.441 629.46 470.341L630.427 470.085C630.771 471.385 631.107 472.689 631.433 473.997L630.463 474.239C631.436 478.135 632.329 482.062 633.141 486.02L634.12 485.819C634.39 487.133 634.651 488.451 634.902 489.771L633.92 489.958C634.671 493.901 635.342 497.873 635.93 501.871L636.919 501.726C637.115 503.053 637.301 504.384 637.478 505.717L636.487 505.849C637.015 509.825 637.461 513.828 637.825 517.854L638.821 517.764C638.942 519.101 639.053 520.441 639.156 521.784L638.159 521.86C638.464 525.857 638.687 529.877 638.826 533.919L639.826 533.884C639.872 535.227 639.909 536.573 639.937 537.92L638.937 537.941C638.979 539.956 639 541.975 639 544C639 546.025 638.979 548.044 638.937 550.059L639.937 550.079C639.909 551.427 639.872 552.772 639.826 554.115L638.826 554.081C638.687 558.122 638.464 562.143 638.159 566.14L639.156 566.216C639.053 567.558 638.942 568.898 638.821 570.236L637.825 570.146C637.462 574.172 637.015 578.174 636.487 582.151L637.478 582.282C637.301 583.616 637.115 584.947 636.919 586.274L635.93 586.129C635.342 590.127 634.671 594.098 633.92 598.041L634.902 598.229C634.651 599.549 634.39 600.867 634.12 602.181L633.141 601.98C632.329 605.937 631.436 609.865 630.463 613.761L631.433 614.003C631.107 615.311 630.771 616.615 630.427 617.915L629.46 617.659C628.427 621.559 627.315 625.427 626.124 629.26L627.079 629.556C626.678 630.846 626.269 632.131 625.851 633.413L624.9 633.102C623.649 636.937 622.319 640.736 620.913 644.497L621.85 644.848C621.377 646.111 620.896 647.37 620.407 648.625L619.475 648.262C618.01 652.018 616.467 655.737 614.85 659.414L615.765 659.817C615.223 661.051 614.672 662.28 614.113 663.504L613.203 663.089C611.529 666.756 609.779 670.382 607.956 673.964L608.848 674.418C608.237 675.618 607.618 676.814 606.991 678.004L606.106 677.538C604.228 681.105 602.277 684.627 600.255 688.102L601.12 688.605C600.443 689.769 599.758 690.927 599.065 692.081L598.208 691.566C596.133 695.02 593.987 698.428 591.773 701.786L592.608 702.336C591.867 703.46 591.118 704.579 590.362 705.691L589.534 705.129C587.27 708.461 584.937 711.743 582.538 714.973L583.341 715.569C582.537 716.65 581.727 717.726 580.909 718.795L580.114 718.188C577.668 721.387 575.156 724.533 572.58 727.624L573.348 728.264C572.485 729.299 571.616 730.328 570.74 731.35L569.98 730.699C567.36 733.756 564.676 736.757 561.931 739.701L562.662 740.383C561.743 741.368 560.818 742.346 559.886 743.318L559.164 742.626C556.378 745.531 553.531 748.378 550.626 751.164L551.318 751.886C550.346 752.818 549.367 753.744 548.383 754.662L547.701 753.931C544.757 756.676 541.756 759.36 538.699 761.98L539.35 762.74C538.328 763.616 537.299 764.485 536.264 765.348L535.624 764.58C532.533 767.156 529.387 769.668 526.188 772.114L526.795 772.909C525.726 773.727 524.65 774.537 523.569 775.341L522.973 774.538C519.743 776.937 516.461 779.27 513.129 781.534L513.691 782.362C512.579 783.118 511.46 783.867 510.336 784.608L509.786 783.773C506.428 785.987 503.02 788.133 499.566 790.208L500.081 791.065C498.927 791.758 497.769 792.443 496.605 793.12L496.102 792.255C492.627 794.277 489.105 796.228 485.538 798.106L486.004 798.991C484.814 799.618 483.618 800.237 482.418 800.848L481.964 799.956C478.382 801.779 474.756 803.529 471.089 805.203L471.504 806.113C470.28 806.672 469.051 807.223 467.817 807.765L467.414 806.85C463.737 808.467 460.018 810.01 456.262 811.475L456.625 812.407C455.37 812.896 454.111 813.377 452.848 813.849L452.497 812.913C448.736 814.319 444.937 815.649 441.103 816.9L441.413 817.851C440.131 818.269 438.846 818.678 437.557 819.079L437.26 818.124C433.427 819.315 429.559 820.427 425.659 821.46L425.915 822.427C424.615 822.771 423.311 823.107 422.003 823.433L421.761 822.463C417.865 823.436 413.938 824.329 409.98 825.141L410.181 826.12C408.867 826.39 407.549 826.651 406.229 826.902L406.042 825.92C402.099 826.671 398.127 827.342 394.129 827.93L394.274 828.919C392.947 829.115 391.616 829.301 390.283 829.478L390.151 828.487C386.175 829.015 382.172 829.461 378.146 829.825L378.236 830.821C376.899 830.942 375.559 831.053 374.216 831.156L374.14 830.159C370.143 830.464 366.123 830.687 362.081 830.826L362.116 831.826C360.773 831.872 359.427 831.909 358.08 831.937L358.059 830.937C356.044 830.979 354.025 831 352 831Z" stroke="#2F8AE1" stroke-width="2" stroke-dasharray="12 4"/>
</g>
<g filter="url(#filter2_di_2310_26448)">
<path d="M352 760C471.294 760 568 663.294 568 544C568 424.706 471.294 328 352 328C232.706 328 136 424.706 136 544C136 663.294 232.706 760 352 760Z" fill="white"/>
</g>
</g>
<defs>
<filter id="filter0_d_2310_26448" x="-96" y="192" width="896" height="896" filterUnits="userSpaceOnUse" color-interpolation-filters="sRGB">
<feFlood flood-opacity="0" result="BackgroundImageFix"/>
<feColorMatrix in="SourceAlpha" type="matrix" values="0 0 0 0 0 0 0 0 0 0 0 0 0 0 0 0 0 0 127 0" result="hardAlpha"/>
<feOffset dy="96"/>
<feGaussianBlur stdDeviation="48"/>
<feColorMatrix type="matrix" values="0 0 0 0 0.0588235 0 0 0 0 0.368627 0 0 0 0 0.760784 0 0 0 0.16 0"/>
<feBlend mode="normal" in2="BackgroundImageFix" result="effect1_dropShadow_2310_26448"/>
<feBlend mode="normal" in="SourceGraphic" in2="effect1_dropShadow_2310_26448" result="shape"/>
</filter>
<filter id="filter1_d_2310_26448" x="-32" y="256" width="768" height="768" filterUnits="userSpaceOnUse" color-interpolation-filters="sRGB">
<feFlood flood-opacity="0" result="BackgroundImageFix"/>
<feColorMatrix in="SourceAlpha" type="matrix" values="0 0 0 0 0 0 0 0 0 0 0 0 0 0 0 0 0 0 127 0" result="hardAlpha"/>
<feOffset dy="96"/>
<feGaussianBlur stdDeviation="48"/>
<feColorMatrix type="matrix" values="0 0 0 0 0.0256 0 0 0 0 0.27136 0 0 0 0 0.64 0 0 0 0.16 0"/>
<feBlend mode="normal" in2="BackgroundImageFix" result="effect1_dropShadow_2310_26448"/>
<feBlend mode="normal" in="SourceGraphic" in2="effect1_dropShadow_2310_26448" result="shape"/>
</filter>
<filter id="filter2_di_2310_26448" x="40" y="256" width="624" height="624" filterUnits="userSpaceOnUse" color-interpolation-filters="sRGB">
<feFlood flood-opacity="0" result="BackgroundImageFix"/>
<feColorMatrix in="SourceAlpha" type="matrix" values="0 0 0 0 0 0 0 0 0 0 0 0 0 0 0 0 0 0 127 0" result="hardAlpha"/>
<feOffset dy="24"/>
<feGaussianBlur stdDeviation="48"/>
<feColorMatrix type="matrix" values="0 0 0 0 0.0576389 0 0 0 0 0.184831 0 0 0 0 0.345833 0 0 0 0.24 0"/>
<feBlend mode="normal" in2="BackgroundImageFix" result="effect1_dropShadow_2310_26448"/>
<feBlend mode="normal" in="SourceGraphic" in2="effect1_dropShadow_2310_26448" result="shape"/>
<feColorMatrix in="SourceAlpha" type="matrix" values="0 0 0 0 0 0 0 0 0 0 0 0 0 0 0 0 0 0 127 0" result="hardAlpha"/>
<feOffset/>
<feGaussianBlur stdDeviation="80"/>
<feComposite in2="hardAlpha" operator="arithmetic" k2="-1" k3="1"/>
<feColorMatrix type="matrix" values="0 0 0 0 0 0 0 0 0 0 0 0 0 0 0 0 0 0 0.1 0"/>
<feBlend mode="normal" in2="shape" result="effect2_innerShadow_2310_26448"/>
</filter>
<clipPath id="clip0_2310_26448">
<rect width="704" height="896" fill="white"/>
</clipPath>
</defs>
</svg>
