<svg width="16" height="16" viewBox="0 0 16 16" fill="none" xmlns="http://www.w3.org/2000/svg">
<path d="M3.36151 10.1105C3.36151 11.0356 2.60582 11.7913 1.68076 11.7913C0.755689 11.7913 0 11.0356 0 10.1105C0 9.18544 0.755689 8.42975 1.68076 8.42975H3.36151V10.1105Z" fill="#E01E5A"/>
<path d="M4.20801 10.1105C4.20801 9.18544 4.9637 8.42975 5.88876 8.42975C6.81383 8.42975 7.56952 9.18544 7.56952 10.1105V14.3189C7.56952 15.244 6.81383 15.9997 5.88876 15.9997C4.9637 15.9997 4.20801 15.244 4.20801 14.3189V10.1105Z" fill="#E01E5A"/>
<path d="M5.88876 3.36151C4.9637 3.36151 4.20801 2.60582 4.20801 1.68076C4.20801 0.755689 4.9637 0 5.88876 0C6.81383 0 7.56952 0.755689 7.56952 1.68076V3.36151H5.88876Z" fill="#36C5F0"/>
<path d="M5.88916 4.20828C6.81423 4.20828 7.56992 4.96397 7.56992 5.88904C7.56992 6.81411 6.81423 7.5698 5.88916 7.5698H1.68076C0.755689 7.5698 0 6.81411 0 5.88904C0 4.96397 0.755689 4.20828 1.68076 4.20828H5.88916Z" fill="#36C5F0"/>
<path d="M12.6377 5.88904C12.6377 4.96397 13.3934 4.20828 14.3185 4.20828C15.2435 4.20828 15.9992 4.96397 15.9992 5.88904C15.9992 6.81411 15.2435 7.5698 14.3185 7.5698H12.6377V5.88904Z" fill="#2EB67D"/>
<path d="M11.7912 5.88916C11.7912 6.81423 11.0355 7.56992 10.1104 7.56992C9.18538 7.56992 8.42969 6.81423 8.42969 5.88916V1.68076C8.42969 0.755689 9.18538 0 10.1104 0C11.0355 0 11.7912 0.755689 11.7912 1.68076V5.88916Z" fill="#2EB67D"/>
<path d="M10.1104 12.638C11.0355 12.638 11.7912 13.3937 11.7912 14.3188C11.7912 15.2439 11.0355 15.9995 10.1104 15.9995C9.18538 15.9995 8.42969 15.2439 8.42969 14.3188V12.638H10.1104Z" fill="#ECB22E"/>
<path d="M10.1104 11.7913C9.18538 11.7913 8.42969 11.0356 8.42969 10.1105C8.42969 9.18544 9.18538 8.42975 10.1104 8.42975H14.3188C15.2439 8.42975 15.9996 9.18544 15.9996 10.1105C15.9996 11.0356 15.2439 11.7913 14.3188 11.7913H10.1104Z" fill="#ECB22E"/>
</svg>
