<svg width="24" height="24" viewBox="0 0 24 24" fill="none" xmlns="http://www.w3.org/2000/svg">
<path fill-rule="evenodd" clip-rule="evenodd" d="M7 2C4.23858 2 2 4.23858 2 7V15C2 17.7614 4.23858 20 7 20H9.25L10.4 21.5333C11.2 22.6 12.8 22.6 13.6 21.5333L14.75 20H17C19.7614 20 22 17.7614 22 15V7C22 4.23858 19.7614 2 17 2H7ZM4 7C4 5.34315 5.34315 4 7 4H17C18.6569 4 20 5.34315 20 7V15C20 16.6569 18.6569 18 17 18H14.25C13.9352 18 13.6389 18.1482 13.45 18.4L12 20.3333L10.55 18.4C10.3611 18.1482 10.0648 18 9.75 18H7C5.34315 18 4 16.6569 4 15V7ZM11.6173 8.07612C11.8 8.00043 12.0011 7.98063 12.1951 8.01922C12.3891 8.0578 12.5673 8.15304 12.7071 8.29289C12.847 8.43275 12.9422 8.61093 12.9808 8.80491C13.0194 8.99889 12.9996 9.19996 12.9239 9.38268C12.8482 9.56541 12.72 9.72159 12.5556 9.83147C12.3911 9.94135 12.1978 10 12 10C11.7348 10 11.4804 10.1054 11.2929 10.2929C11.1054 10.4804 11 10.7348 11 11V12C11 12.5523 11.4477 13 12 13C12.5523 13 13 12.5523 13 12V11.8284C13.234 11.7457 13.4581 11.6338 13.6667 11.4944C14.1601 11.1648 14.5446 10.6962 14.7716 10.1481C14.9987 9.59987 15.0581 8.99667 14.9424 8.41473C14.8266 7.83279 14.5409 7.29824 14.1213 6.87868C13.7018 6.45912 13.1672 6.1734 12.5853 6.05764C12.0033 5.94189 11.4001 6.0013 10.8519 6.22836C10.3038 6.45543 9.83524 6.83994 9.50559 7.33329C9.17595 7.82664 9 8.40666 9 9C9 9.55229 9.44772 10 10 10C10.5523 10 11 9.55229 11 9C11 8.80222 11.0586 8.60888 11.1685 8.44443C11.2784 8.27998 11.4346 8.15181 11.6173 8.07612ZM12 16C12.5523 16 13 15.5523 13 15C13 14.4477 12.5523 14 12 14C11.4477 14 11 14.4477 11 15C11 15.5523 11.4477 16 12 16Z" fill="white"/>
</svg>
