<svg width="24" height="24" viewBox="0 0 24 24" fill="none" xmlns="http://www.w3.org/2000/svg">
<path fill-rule="evenodd" clip-rule="evenodd" d="M12 3C12.5523 3 13 3.44772 13 4L13 13C13 13.5523 12.5523 14 12 14C11.4477 14 11 13.5523 11 13L11 4C11 3.44772 11.4477 3 12 3ZM6 3C6.55229 3 7 3.44772 7 4L7 7H8C8.55229 7 9 7.44772 9 8C9 8.55229 8.55229 9 8 9L4 9C3.44772 9 3 8.55229 3 8C3 7.44772 3.44772 7 4 7H5L5 4C5 3.44772 5.44772 3 6 3ZM18 3C18.5523 3 19 3.44772 19 4L19 10H20C20.5523 10 21 10.4477 21 11C21 11.5523 20.5523 12 20 12L16 12C15.4477 12 15 11.5523 15 11C15 10.4477 15.4477 10 16 10H17L17 4C17 3.44772 17.4477 3 18 3ZM6 10C6.55228 10 7 10.4477 7 11L7 20C7 20.5523 6.55228 21 6 21C5.44771 21 5 20.5523 5 20L5 11C5 10.4477 5.44772 10 6 10ZM18 13C18.5523 13 19 13.4477 19 14L19 20C19 20.5523 18.5523 21 18 21C17.4477 21 17 20.5523 17 20L17 14C17 13.4477 17.4477 13 18 13ZM9 16C9 15.4477 9.44771 15 10 15H14C14.5523 15 15 15.4477 15 16C15 16.5523 14.5523 17 14 17H13L13 20C13 20.5523 12.5523 21 12 21C11.4477 21 11 20.5523 11 20L11 17H10C9.44771 17 9 16.5523 9 16Z" fill="white"/>
</svg>
